<svg style="width: 2rem; height: 2rem" class="icon icon-cart" viewBox="0 0 17 17" fill="none" xmlns="http://www.w3.org/2000/svg">
<path d="M0.657104 5.61315H15.7509L14.9632 14.2741C14.9206 14.7429 14.7043 15.1788 14.3568 15.4963C14.0093 15.8138 13.5556 15.9899 13.0849 15.9901H3.32304C2.85234 15.9899 2.39871 15.8138 2.0512 15.4963C1.70369 15.1788 1.48741 14.7429 1.44481 14.2741L0.657104 5.61315Z" stroke="#484827" stroke-width="1.31429" stroke-linejoin="round"/>
<path d="M4.73059 6.40714V3.94286C4.73059 3.07143 5.10922 2.2357 5.78318 1.61951C6.45713 1.00331 7.37122 0.657143 8.32434 0.657143C9.27746 0.657143 10.1915 1.00331 10.8655 1.61951C11.5395 2.2357 11.9181 3.07143 11.9181 3.94286V6.40714" stroke="#484827" stroke-width="1.31429"/>
</svg>
